<svg width="512" height="512" viewBox="0 0 512 512" fill="none" xmlns="http://www.w3.org/2000/svg">
  <rect width="512" height="512" rx="118" fill="#F5B51B"/>
  <path d="M162 294H335C335 256 309 226 272 216C263 214 255 221 255 230V247C255 253 259 258 265 260C281 265 294 276 300 291H162V294Z" fill="white"/>
  <path d="M162 294C165 357 211 397 267 397C309 397 346 374 365 338C374 321 361 302 342 302H162V294Z" fill="white"/>
  <path d="M189 246C189 190 234 145 290 145H374C374 207 324 257 262 257H231C214 257 199 267 189 282V246Z" fill="white"/>
  <path d="M326 160C326 131 349 108 378 108H415C415 146 384 177 346 177H326V160Z" fill="#111111"/>
</svg>
